<?xml version="1.0" encoding="UTF-8" standalone="no"?>
<svg xmlns="http://www.w3.org/2000/svg" xml:space="preserve" width="439.54999" height="439.548" version="1.0">
  <circle cx="249.5" cy="249.5" r="205" fill="#fff" stroke="#000" transform="translate(-30.253 -31.61)"/>
  <g transform="translate(-30.253 -31.61)">
    <path d="M105.403 257.423h246.02901v39.354H105.403z"/>
    <path fill="none" stroke="#000" stroke-linejoin="round" stroke-miterlimit="10" stroke-width="13.18700027" d="M274.445 100.269c-23.356 0-32.885 18.899-32.885 33.48 0 16.618 13.668 34.512 39.566 32.992-8.953 15.205-1.094 39.916 20.144 39.916h35.414c18.898 0 28.707 10.047 28.707 25.579v18.056"/>
    <path fill="none" stroke="#000" stroke-linejoin="round" stroke-miterlimit="10" stroke-width="13.18700027" d="M285.789 113.105c23.736 0 39.488 16.49 39.488 36.692 0 7.809-2.933 17.27-8.881 25.473h20.938c30.438 0 48.593 25.359 48.593 50.775v24.247m-20.53601 6.50701V296.621m20.61401-39.82199V296.621"/>
    <path fill="#fff" d="M273.44101 89.786003h13.187v32.618999h-13.187z"/>
    <path fill="none" stroke="#fff" stroke-miterlimit="10" stroke-width="55" d="M393.35001 392.509 110.112 109.275"/>
    <path fill="none" stroke="red" stroke-miterlimit="10" stroke-width="49" d="M250.029 446.658c-107.846 0-195.276-87.428-195.276-195.271 0-107.848 87.43-195.277 195.276-195.277 107.845 0 195.274 87.429 195.274 195.277 0 107.843-87.429 195.271-195.274 195.271z"/>
    <path fill="none" stroke="red" stroke-miterlimit="10" stroke-width="51.11999893" d="M392.86801 392.19101 109.63 108.957"/>
  </g>
</svg>