<?xml version="1.0" encoding="UTF-8"?>
<!DOCTYPE svg PUBLIC "-//W3C//DTD SVG 1.1//EN" "http://www.w3.org/Graphics/SVG/1.1/DTD/svg11.dtd">
<svg xmlns="http://www.w3.org/2000/svg" version="1.1" width="400px" height="400px" style="shape-rendering:geometricPrecision; text-rendering:geometricPrecision; image-rendering:optimizeQuality; fill-rule:evenodd; clip-rule:evenodd" xmlns:xlink="http://www.w3.org/1999/xlink">
<g><path style="opacity:1" fill="#d3d3d3" d="M -0.5,-0.5 C 17.5,-0.5 35.5,-0.5 53.5,-0.5C 51.2564,1.23661 49.0897,3.23661 47,5.5C 45.187,4.39095 44.3537,5.05762 44.5,7.5C 43.448,7.35055 42.448,7.51722 41.5,8C 38.5,12.3333 34.8333,16 30.5,19C 29.552,19.4828 28.552,19.6495 27.5,19.5C 27.6495,20.552 27.4828,21.552 27,22.5C 23.5019,25.4882 20.0019,28.4882 16.5,31.5C 9.92839,38.3941 4.26172,45.3941 -0.5,52.5C -0.5,34.8333 -0.5,17.1667 -0.5,-0.5 Z"/></g>
<g><path style="opacity:1" fill="#d8d8d8" d="M 53.5,-0.5 C 83.5,-0.5 113.5,-0.5 143.5,-0.5C 143.25,0.922058 142.417,1.92206 141,2.5C 139.883,2.33494 138.716,2.0016 137.5,1.5C 129.869,4.41941 122.203,7.25275 114.5,10C 107.843,13.1158 101.343,16.6158 95,20.5C 94.586,20.0426 94.086,19.7093 93.5,19.5C 90.0003,23.5596 85.667,26.0596 80.5,27C 79.2575,31.5336 75.9242,34.0336 70.5,34.5C 70.1913,37.3455 68.5246,38.8455 65.5,39C 60.1867,44.3133 54.8534,49.6466 49.5,55C 45.639,54.7051 44.3057,56.2051 45.5,59.5C 44.2776,61.9783 42.2776,62.9783 39.5,62.5C 39.5,64.1667 39.5,65.8333 39.5,67.5C 35.759,67.5867 33.759,69.5867 33.5,73.5C 31.4936,76.0059 29.1603,78.1726 26.5,80C 22.314,89.3241 16.9807,98.3241 10.5,107C 10.9574,107.414 11.2907,107.914 11.5,108.5C 9.00232,112.807 6.66899,116.473 4.5,119.5C 4.70931,120.086 5.04265,120.586 5.5,121C 4.15545,125.562 2.15545,129.729 -0.5,133.5C -0.5,106.5 -0.5,79.5 -0.5,52.5C 4.26172,45.3941 9.92839,38.3941 16.5,31.5C 20.0019,28.4882 23.5019,25.4882 27,22.5C 27.4828,21.552 27.6495,20.552 27.5,19.5C 28.552,19.6495 29.552,19.4828 30.5,19C 34.8333,16 38.5,12.3333 41.5,8C 42.448,7.51722 43.448,7.35055 44.5,7.5C 44.3537,5.05762 45.187,4.39095 47,5.5C 49.0897,3.23661 51.2564,1.23661 53.5,-0.5 Z"/></g>
<g><path style="opacity:1" fill="#d8d8d8" d="M 251.5,-0.5 C 281.167,-0.5 310.833,-0.5 340.5,-0.5C 342.498,1.59981 344.665,3.59981 347,5.5C 348.183,4.26899 349.349,4.26899 350.5,5.5C 349.332,6.9056 349.665,8.07227 351.5,9C 356.476,12.6349 361.476,16.3016 366.5,20C 367.893,21.1711 368.727,22.6711 369,24.5C 371.119,24.5072 372.953,25.6739 374.5,28C 373.542,29.1475 373.875,30.1475 375.5,31C 376.449,31.6172 377.282,31.4506 378,30.5C 379.206,33.8753 381.04,36.8753 383.5,39.5C 384.325,40.3857 385.325,40.719 386.5,40.5C 387.793,44.6384 390.126,48.1384 393.5,51C 393.167,51.3333 392.833,51.6667 392.5,52C 393.448,52.4828 394.448,52.6495 395.5,52.5C 395.622,55.2921 396.956,57.2921 399.5,58.5C 399.5,90.5 399.5,122.5 399.5,154.5C 396.544,144.355 393.71,134.021 391,123.5C 385.972,114.777 381.472,105.777 377.5,96.5C 374.177,93.2213 372.177,89.2213 371.5,84.5C 369.319,84.7163 367.653,83.883 366.5,82C 367.167,81.3333 367.833,80.6667 368.5,80C 363.297,77.7425 359.797,73.9091 358,68.5C 355.293,64.8063 351.96,61.8063 348,59.5C 346.961,56.9868 345.628,54.6534 344,52.5C 341.132,51.6392 338.798,49.9725 337,47.5C 336.383,46.5509 336.549,45.7175 337.5,45C 335.26,44.023 332.927,43.523 330.5,43.5C 330.762,42.0222 330.429,40.6888 329.5,39.5C 328.914,39.7093 328.414,40.0426 328,40.5C 325.991,39.1666 324.324,37.5 323,35.5C 321.853,36.4581 320.853,36.1247 320,34.5C 319.667,33.1667 319.333,31.8333 319,30.5C 318,30.8333 317,31.1667 316,31.5C 314.647,30.3147 313.48,28.9814 312.5,27.5C 305.442,23.4825 298.109,19.8159 290.5,16.5C 289.396,15.3687 289.729,14.5354 291.5,14C 289.5,14 287.5,14 285.5,14C 281.32,12.4328 277.487,10.2661 274,7.5C 273.667,7.83333 273.333,8.16667 273,8.5C 269.324,6.76421 265.491,5.26421 261.5,4C 261.833,3.66667 262.167,3.33333 262.5,3C 258.698,2.08331 255.032,1.91664 251.5,2.5C 251.5,1.5 251.5,0.5 251.5,-0.5 Z"/></g>
<g><path style="opacity:1" fill="#d3d2d3" d="M 340.5,-0.5 C 360.167,-0.5 379.833,-0.5 399.5,-0.5C 399.5,19.1667 399.5,38.8333 399.5,58.5C 396.956,57.2921 395.622,55.2921 395.5,52.5C 394.448,52.6495 393.448,52.4828 392.5,52C 392.833,51.6667 393.167,51.3333 393.5,51C 390.126,48.1384 387.793,44.6384 386.5,40.5C 385.325,40.719 384.325,40.3857 383.5,39.5C 381.04,36.8753 379.206,33.8753 378,30.5C 377.282,31.4506 376.449,31.6172 375.5,31C 373.875,30.1475 373.542,29.1475 374.5,28C 372.953,25.6739 371.119,24.5072 369,24.5C 368.727,22.6711 367.893,21.1711 366.5,20C 361.476,16.3016 356.476,12.6349 351.5,9C 349.665,8.07227 349.332,6.9056 350.5,5.5C 349.349,4.26899 348.183,4.26899 347,5.5C 344.665,3.59981 342.498,1.59981 340.5,-0.5 Z"/></g>
<g><path style="opacity:1" fill="#dadada" d="M 143.5,-0.5 C 179.5,-0.5 215.5,-0.5 251.5,-0.5C 251.5,0.5 251.5,1.5 251.5,2.5C 255.032,1.91664 258.698,2.08331 262.5,3C 262.167,3.33333 261.833,3.66667 261.5,4C 265.491,5.26421 269.324,6.76421 273,8.5C 273.333,8.16667 273.667,7.83333 274,7.5C 277.487,10.2661 281.32,12.4328 285.5,14C 287.5,14 289.5,14 291.5,14C 289.729,14.5354 289.396,15.3687 290.5,16.5C 298.109,19.8159 305.442,23.4825 312.5,27.5C 313.48,28.9814 314.647,30.3147 316,31.5C 317,31.1667 318,30.8333 319,30.5C 319.333,31.8333 319.667,33.1667 320,34.5C 320.853,36.1247 321.853,36.4581 323,35.5C 324.324,37.5 325.991,39.1666 328,40.5C 328.414,40.0426 328.914,39.7093 329.5,39.5C 330.429,40.6888 330.762,42.0222 330.5,43.5C 332.927,43.523 335.26,44.023 337.5,45C 336.549,45.7175 336.383,46.5509 337,47.5C 338.798,49.9725 341.132,51.6392 344,52.5C 345.628,54.6534 346.961,56.9868 348,59.5C 351.96,61.8063 355.293,64.8063 358,68.5C 359.797,73.9091 363.297,77.7425 368.5,80C 367.833,80.6667 367.167,81.3333 366.5,82C 367.653,83.883 369.319,84.7163 371.5,84.5C 372.177,89.2213 374.177,93.2213 377.5,96.5C 381.472,105.777 385.972,114.777 391,123.5C 393.71,134.021 396.544,144.355 399.5,154.5C 399.5,186.167 399.5,217.833 399.5,249.5C 398.644,253.587 397.644,257.754 396.5,262C 396.559,263.436 396.892,264.769 397.5,266C 393.434,269.503 391.268,274.003 391,279.5C 384.683,291.759 377.849,304.426 370.5,317.5C 366.404,321.478 362.738,325.811 359.5,330.5C 358.902,331.795 358.402,333.128 358,334.5C 357.667,334.167 357.333,333.833 357,333.5C 352.701,340.624 347.534,346.957 341.5,352.5C 338.164,353.178 336.164,355.178 335.5,358.5C 329.019,363.91 322.019,368.576 314.5,372.5C 313.614,373.325 313.281,374.325 313.5,375.5C 308.395,376.532 304.395,379.198 301.5,383.5C 297.871,382.142 295.204,383.309 293.5,387C 283.515,391.501 273.515,395.668 263.5,399.5C 218.833,399.5 174.167,399.5 129.5,399.5C 129.53,398.503 129.03,397.836 128,397.5C 124.316,396.164 120.649,394.831 117,393.5C 116.667,393.833 116.333,394.167 116,394.5C 111.172,390.604 105.672,387.937 99.5,386.5C 97.4835,384.316 95.3169,382.316 93,380.5C 92.586,380.957 92.086,381.291 91.5,381.5C 89.0993,379.438 86.4326,377.771 83.5,376.5C 82.273,375.41 81.4396,374.076 81,372.5C 80.586,372.957 80.086,373.291 79.5,373.5C 75.061,370.045 70.3944,367.045 65.5,364.5C 64.946,360.572 62.946,359.239 59.5,360.5C 58.5,359.5 57.5,358.5 56.5,357.5C 56.8457,356.304 57.3457,356.304 58,357.5C 57.9139,355.057 56.5806,353.39 54,352.5C 53.6667,352.833 53.3333,353.167 53,353.5C 51.7485,351.999 50.7485,350.332 50,348.5C 48.3905,347.853 46.8905,347.02 45.5,346C 45.9574,345.586 46.2907,345.086 46.5,344.5C 44.8409,343.183 43.6743,341.517 43,339.5C 42.0475,341.592 40.7141,341.925 39,340.5C 39,339.167 39,337.833 39,336.5C 34.1804,332.388 30.1804,327.055 27,320.5C 25.6218,318.787 23.9552,317.453 22,316.5C 21.6892,314.444 21.1892,312.444 20.5,310.5C 19.675,309.614 18.675,309.281 17.5,309.5C 17.17,305.979 15.67,302.979 13,300.5C 11.4563,296.443 9.78967,292.443 8,288.5C 7.33333,289.833 6.66667,289.833 6,288.5C 5.80083,286.598 4.96749,285.098 3.5,284C 4.42797,283.612 5.09464,282.945 5.5,282C 3.92869,277.508 1.92869,273.342 -0.5,269.5C -0.5,224.167 -0.5,178.833 -0.5,133.5C 2.15545,129.729 4.15545,125.562 5.5,121C 5.04265,120.586 4.70931,120.086 4.5,119.5C 6.66899,116.473 9.00232,112.807 11.5,108.5C 11.2907,107.914 10.9574,107.414 10.5,107C 16.9807,98.3241 22.314,89.3241 26.5,80C 29.1603,78.1726 31.4936,76.0059 33.5,73.5C 33.759,69.5867 35.759,67.5867 39.5,67.5C 39.5,65.8333 39.5,64.1667 39.5,62.5C 42.2776,62.9783 44.2776,61.9783 45.5,59.5C 44.3057,56.2051 45.639,54.7051 49.5,55C 54.8534,49.6466 60.1867,44.3133 65.5,39C 68.5246,38.8455 70.1913,37.3455 70.5,34.5C 75.9242,34.0336 79.2575,31.5336 80.5,27C 85.667,26.0596 90.0003,23.5596 93.5,19.5C 94.086,19.7093 94.586,20.0426 95,20.5C 101.343,16.6158 107.843,13.1158 114.5,10C 122.203,7.25275 129.869,4.41941 137.5,1.5C 138.716,2.0016 139.883,2.33494 141,2.5C 142.417,1.92206 143.25,0.922058 143.5,-0.5 Z"/></g>
<g><path style="opacity:1" fill="#999999" d="M 182.5,1.5 C 254.705,-0.971791 312.871,26.0282 357,82.5C 398.683,144.006 405.683,209.34 378,278.5C 346.136,345.698 293.303,384.531 219.5,395C 134.377,401.523 69.5433,368.69 25,296.5C 0.15475,249.245 -6.17858,199.578 6,147.5C 33.9763,61.3438 92.8097,12.6772 182.5,1.5 Z"/></g>
<g><path style="opacity:1" fill="#fcfcfc" d="M 186.5,71.5 C 222.935,68.7829 246.435,84.7829 257,119.5C 260.761,156.168 245.261,180.334 210.5,192C 172.083,196.26 147.583,179.76 137,142.5C 134.281,105.23 150.781,81.563 186.5,71.5 Z"/></g>
<g><path style="opacity:1" fill="#fcfcfc" d="M 181.5,204.5 C 206.657,202.519 230.991,206.019 254.5,215C 285.715,229.225 303.549,253.392 308,287.5C 308.81,295.498 309.143,303.498 309,311.5C 304.447,316.028 298.947,318.861 292.5,320C 274.075,324.108 255.408,326.441 236.5,327C 201.129,328.07 165.796,327.403 130.5,325C 115.94,323.859 101.94,320.526 88.5,315C 82.9159,286.831 89.0826,261.331 107,238.5C 127.551,217.815 152.385,206.482 181.5,204.5 Z"/></g>
<g><path style="opacity:1" fill="#d8d8d8" d="M 399.5,249.5 C 399.5,281.833 399.5,314.167 399.5,346.5C 393.486,351.526 388.486,357.526 384.5,364.5C 373.696,375.467 362.363,385.967 350.5,396C 349.552,396.483 348.552,396.649 347.5,396.5C 347.5,397.5 347.5,398.5 347.5,399.5C 319.5,399.5 291.5,399.5 263.5,399.5C 273.515,395.668 283.515,391.501 293.5,387C 295.204,383.309 297.871,382.142 301.5,383.5C 304.395,379.198 308.395,376.532 313.5,375.5C 313.281,374.325 313.614,373.325 314.5,372.5C 322.019,368.576 329.019,363.91 335.5,358.5C 336.164,355.178 338.164,353.178 341.5,352.5C 347.534,346.957 352.701,340.624 357,333.5C 357.333,333.833 357.667,334.167 358,334.5C 358.402,333.128 358.902,331.795 359.5,330.5C 362.738,325.811 366.404,321.478 370.5,317.5C 377.849,304.426 384.683,291.759 391,279.5C 391.268,274.003 393.434,269.503 397.5,266C 396.892,264.769 396.559,263.436 396.5,262C 397.644,257.754 398.644,253.587 399.5,249.5 Z"/></g>
<g><path style="opacity:1" fill="#d8d8d8" d="M -0.5,269.5 C 1.92869,273.342 3.92869,277.508 5.5,282C 5.09464,282.945 4.42797,283.612 3.5,284C 4.96749,285.098 5.80083,286.598 6,288.5C 6.66667,289.833 7.33333,289.833 8,288.5C 9.78967,292.443 11.4563,296.443 13,300.5C 15.67,302.979 17.17,305.979 17.5,309.5C 18.675,309.281 19.675,309.614 20.5,310.5C 21.1892,312.444 21.6892,314.444 22,316.5C 23.9552,317.453 25.6218,318.787 27,320.5C 30.1804,327.055 34.1804,332.388 39,336.5C 39,337.833 39,339.167 39,340.5C 40.7141,341.925 42.0475,341.592 43,339.5C 43.6743,341.517 44.8409,343.183 46.5,344.5C 46.2907,345.086 45.9574,345.586 45.5,346C 46.8905,347.02 48.3905,347.853 50,348.5C 50.7485,350.332 51.7485,351.999 53,353.5C 53.3333,353.167 53.6667,352.833 54,352.5C 56.5806,353.39 57.9139,355.057 58,357.5C 57.3457,356.304 56.8457,356.304 56.5,357.5C 57.5,358.5 58.5,359.5 59.5,360.5C 62.946,359.239 64.946,360.572 65.5,364.5C 70.3944,367.045 75.061,370.045 79.5,373.5C 80.086,373.291 80.586,372.957 81,372.5C 81.4396,374.076 82.273,375.41 83.5,376.5C 86.4326,377.771 89.0993,379.438 91.5,381.5C 92.086,381.291 92.586,380.957 93,380.5C 95.3169,382.316 97.4835,384.316 99.5,386.5C 105.672,387.937 111.172,390.604 116,394.5C 116.333,394.167 116.667,393.833 117,393.5C 120.649,394.831 124.316,396.164 128,397.5C 129.03,397.836 129.53,398.503 129.5,399.5C 102.5,399.5 75.5,399.5 48.5,399.5C 43.4562,395.654 38.4562,391.82 33.5,388C 29.5132,382.523 24.8465,377.689 19.5,373.5C 18.3112,372.571 16.9778,372.238 15.5,372.5C 15.453,369.277 13.953,366.943 11,365.5C 10.3905,362.39 8.55718,360.39 5.5,359.5C 3.83301,356.187 1.83301,353.187 -0.5,350.5C -0.5,323.5 -0.5,296.5 -0.5,269.5 Z"/></g>
<g><path style="opacity:1" fill="#d3d2d3" d="M 399.5,346.5 C 399.5,364.167 399.5,381.833 399.5,399.5C 382.167,399.5 364.833,399.5 347.5,399.5C 347.5,398.5 347.5,397.5 347.5,396.5C 348.552,396.649 349.552,396.483 350.5,396C 362.363,385.967 373.696,375.467 384.5,364.5C 388.486,357.526 393.486,351.526 399.5,346.5 Z"/></g>
<g><path style="opacity:1" fill="#d3d3d3" d="M -0.5,350.5 C 1.83301,353.187 3.83301,356.187 5.5,359.5C 8.55718,360.39 10.3905,362.39 11,365.5C 13.953,366.943 15.453,369.277 15.5,372.5C 16.9778,372.238 18.3112,372.571 19.5,373.5C 24.8465,377.689 29.5132,382.523 33.5,388C 38.4562,391.82 43.4562,395.654 48.5,399.5C 32.1667,399.5 15.8333,399.5 -0.5,399.5C -0.5,383.167 -0.5,366.833 -0.5,350.5 Z"/></g>
</svg>
