<?xml version="1.0" encoding="utf-8"?>
<!-- Generator: Adobe Illustrator 16.0.0, SVG Export Plug-In . SVG Version: 6.00 Build 0)  -->
<!DOCTYPE svg PUBLIC "-//W3C//DTD SVG 1.1//EN" "http://www.w3.org/Graphics/SVG/1.1/DTD/svg11.dtd">
<svg version="1.1" xmlns="http://www.w3.org/2000/svg" xmlns:xlink="http://www.w3.org/1999/xlink" x="0px" y="0px" width="750px"
	 height="500px" viewBox="0 0 750 500" enable-background="new 0 0 750 500" xml:space="preserve">
<g id="BACKGROUND">
	<rect fill="#FFFFFF" width="750" height="500"/>
</g>
<g id="OBJECTS">
	<g>
		<g>
			<polygon fill="#B3B3B3" points="638,245 650,245 650,264.3 674.7,264.3 674.7,270.3 690,270.3 690,304.3 630.7,295.7 			"/>
			<polygon fill="#B3B3B3" points="301.3,164.3 281.3,164.3 281.3,207.7 274.7,207.7 274.7,290.3 294.7,290.3 294.7,231 301.3,231 
							"/>
			<polygon fill="#B3B3B3" points="199.3,337 199.3,205.7 210,205.7 210,194.3 214,190.3 214,183 218,183 221,180 245.3,180 
				245.3,351 			"/>
			<rect x="477.9" y="218.1" fill="#B3B3B3" width="45.1" height="132.4"/>
		</g>
		<path fill="#959798" d="M578.1,201.5c0,0,0.2-6.4,4.3-6.4h6.2c0,0,4.3-3.4,7.7,0c4.3,0,18.1,0,18.1,0s4.5,0.4,4.9,4.9
			c0,8.1,0,81.1,0,81.1h-41.1V201.5z"/>
		<rect x="288.4" y="119" fill="#57595B" width="35.8" height="32.2"/>
		<rect x="250.5" y="281.2" fill="#241F21" width="18" height="75.3"/>
		<g>
			<polygon fill="#959798" points="714.7,336.3 714.7,309.7 708.7,309.7 708.7,294.3 684.7,294.3 684.7,369 706,369 706,389 
				736,389 736,336.3 			"/>
			<polygon fill="#959798" points="10.7,350.3 15.3,341 33.3,341 33.3,334.3 65.3,334.3 65.3,353.7 			"/>
			<polygon fill="#959798" points="396.8,334.6 396.8,200.1 446.6,209.4 446.6,334.6 			"/>
			<polygon fill="#959798" points="131.8,177.4 155.4,136.8 179.7,177.4 179.7,319.5 131.8,319.5 			"/>
			<rect x="460.9" y="235.8" fill="#959798" width="23.4" height="98.6"/>
		</g>
		<g>
			<polygon fill="#57595B" points="540,348.2 540,246.7 545.6,246.7 545.6,239.6 551.3,239.6 551.3,230.7 560.7,230.7 560.7,223.7 
				570.7,225.2 570.7,232.4 579.8,232.4 579.8,348.2 			"/>
			<rect x="288.4" y="136.2" fill="#57595B" width="44.7" height="215.2"/>
			<rect x="124.1" y="233.9" fill="#57595B" width="32.9" height="98.7"/>
			<polygon fill="#57595B" points="173,356.5 173,253.7 175.7,253.7 175.7,244.2 179.8,244.2 179.8,239.6 196.7,223.7 214.4,244.2 
				218,244.2 218,255.1 222.1,255.1 222.1,356.5 			"/>
			<rect x="389.8" y="214.7" fill="#57595B" width="39.6" height="91.3"/>
			<path fill="#57595B" d="M465.4,260.3l-3.9-5.9v-22.8h-1.7v22.1l-4.7,6.6h-4.3v64.9h19.8v-64.9H465.4z M463.9,260.3h-2.4v-3.6
				L463.9,260.3z M459.8,255.9v4.4h-3.1L459.8,255.9z"/>
			<polygon fill="#57595B" points="475.8,259.2 496.6,265.6 496.6,350.8 475.8,350.8 			"/>
			<polygon fill="#57595B" points="594.1,285.6 594.1,228.6 609.9,228.6 609.9,221.6 622.8,221.6 622.8,229 629.7,229 629.7,224.5 
				639.2,224.5 639.2,283.1 			"/>
		</g>
		<g>
			<rect x="259.8" y="246.7" fill="#241F21" width="36.7" height="109.8"/>
			<polygon fill="#241F21" points="382,190.5 382,181.4 379.4,178.1 377.1,181.3 377.1,183.7 368.8,183.7 368.8,179.7 364.1,179.7 
				364.1,176.2 361.6,176.2 361.6,159.8 359,156.7 356.6,159.7 356.6,176.3 354.6,176.3 354.6,180.2 349.5,180.2 349.5,184.1 
				341.3,184.1 341.3,180.5 338.9,178.2 336.2,181.9 336.2,189.7 329.7,190.2 329.7,356.5 388.5,356.5 388.5,191.4 			"/>
			<polygon fill="#241F21" points="198.5,356.5 198.5,320.7 184.8,320.7 184.8,306.1 164.7,306.1 164.7,291.4 145.8,291.4 
				145.8,253.1 117.1,253.1 117.1,261 99.2,261 99.2,278.3 79.1,278.3 79.1,293 65.4,293 65.4,302.5 59,302.5 59,356.5 			"/>
			<path fill="#241F21" d="M553.7,356.5v-75.3h6.6v-7c0,0,31.7,0,47,0c15.3,0,17,6.2,39.8,6.2s38.7-0.4,40.9,1.7c6,0,7,0,7,0v74.5
				H553.7z"/>
			<polygon fill="#241F21" points="383.7,356.5 383.7,255.9 408,255.9 442.1,259.4 442.1,356.5 			"/>
			<polygon fill="#241F21" points="435.7,322 462.8,322 470.7,314.1 481.1,314.1 481.1,346.3 500.9,346.3 500.9,339.3 544.9,339.3 
				544.9,330.3 558.3,330.3 553.7,356.5 442.1,356.5 400.6,325.8 			"/>
			<rect x="216.1" y="302.2" fill="#241F21" width="21.7" height="54.3"/>
			<polygon fill="#241F21" points="219.9,323.9 208.4,323.9 208.4,346.9 190.5,346.9 198.5,356.5 225.2,356.5 			"/>
			<polygon fill="#241F21" points="514.7,344.4 514.7,282.4 528.5,282.4 528.5,279 537.1,279 537.1,283.1 542.8,283.1 542.8,344.4 
							"/>
			<rect x="281.2" y="345" fill="#241F21" width="57.5" height="11.5"/>
		</g>
		<g>
			<path fill="#241F21" d="M712.2,321.6c0.6,0.1,1.1,0.2,1.7,0.2c4.5,0,8.2-3.7,8.2-8.2c0-4.3-3.3-7.8-7.5-8.2
				c-1.2-5.4-6-9.4-11.8-9.4c-6.7,0-12.1,5.4-12.1,12.1c0,2,0.5,3.8,1.3,5.5c-0.2,0-0.3,0-0.5,0c-4.5,0-8.2,3.7-8.2,8.2
				s3.7,8.2,8.2,8.2c0.3,0,0.7,0,1-0.1l0.6,0.6c-0.8,0-1.4,0.4-1.9,0.9c-0.3-0.1-0.6-0.2-0.9-0.2c-1.5,0-2.6,1.2-2.6,2.6
				c0,1.1,0.7,2,1.6,2.4c0,0.2-0.1,0.5-0.1,0.7c0,2,1.7,3.7,3.7,3.7c2,0,3.7-1.7,3.7-3.7c0-0.5-0.1-0.9-0.3-1.3l1.7-0.3l2.8,2.8V353
				h3.4v-11.5l4.1-4c0.7,0.4,1.5,0.6,2.4,0.6c3,0,5.4-2.4,5.4-5.4c0-1.1-0.3-2.1-0.9-3c0.5-0.6,0.8-1.4,0.8-2.2c0-2-1.7-3.7-3.7-3.7
				c-1.8,0-3.3,1.3-3.6,3l-2.2,0.4L712.2,321.6z M699.5,319.7c0.5,0.1,0.9,0.2,1.4,0.3v6.2l-1.6-1.9c0.3-0.8,0.4-1.7,0.4-2.5
				C699.7,321,699.6,320.4,699.5,319.7z M704.3,320.1c1.2-0.2,2.4-0.5,3.5-1c0.1,0.1,0.1,0.1,0.2,0.2l0,4.9l-3.7,3.7V320.1z
				 M709.1,323v-2.8c0.6,0.4,1.2,0.7,1.8,1L709.1,323z M696.2,328.5v3.5l-2.4-2.4C694.7,329.4,695.5,329,696.2,328.5z M696.2,335.2
				c-0.2-0.3-0.3-0.5-0.6-0.7c0.2-0.4,0.3-0.8,0.4-1.2l1.7,1.7L696.2,335.2z M697.4,333.1l0-5.6c0.7-0.7,1.3-1.6,1.7-2.6l1.8,2.2
				v9.6L697.4,333.1z M708.7,327.4c0,0,0,0.1,0,0.1c0,0.1,0,0.2,0,0.3c-1.9,0.8-3.2,2.7-3.2,4.9c0,1.7,0.8,3.2,2,4.2l-3.2,3.1v-10.5
				l1.6-1.6L708.7,327.4z"/>
			<path fill="#241F21" d="M60.2,322.2c0.5,0.1,1,0.2,1.6,0.2c4.2,0,7.6-3.4,7.6-7.6c0-4-3.1-7.3-7-7.6c-1.1-5-5.6-8.7-11-8.7
				c-6.2,0-11.2,5-11.2,11.2c0,1.8,0.4,3.5,1.2,5.1c-0.2,0-0.3,0-0.5,0c-4.2,0-7.6,3.4-7.6,7.6c0,4.2,3.4,7.6,7.6,7.6
				c0.3,0,0.6,0,0.9-0.1l0.6,0.6c-0.7,0-1.3,0.4-1.7,0.9c-0.3-0.1-0.5-0.1-0.8-0.1c-1.4,0-2.5,1.1-2.5,2.5c0,1,0.6,1.9,1.5,2.2
				c0,0.2-0.1,0.5-0.1,0.7c0,1.9,1.5,3.4,3.4,3.4c1.9,0,3.4-1.5,3.4-3.4c0-0.4-0.1-0.9-0.2-1.2l1.6-0.3l2.6,2.6v13.7h3.2v-10.7
				l3.9-3.7c0.7,0.3,1.4,0.5,2.2,0.5c2.8,0,5-2.2,5-5c0-1-0.3-2-0.8-2.8c0.4-0.6,0.7-1.3,0.7-2.1c0-1.9-1.5-3.4-3.4-3.4
				c-1.7,0-3.1,1.2-3.4,2.8l-2,0.3L60.2,322.2z M48.4,320.5c0.4,0.1,0.9,0.2,1.3,0.3v5.7l-1.5-1.8c0.2-0.7,0.4-1.5,0.4-2.4
				C48.7,321.7,48.6,321.1,48.4,320.5z M52.9,320.8c1.1-0.1,2.2-0.5,3.2-0.9c0.1,0.1,0.1,0.1,0.2,0.2l0,4.5l-3.4,3.4V320.8z
				 M57.4,323.6V321c0.5,0.4,1.1,0.7,1.7,0.9L57.4,323.6z M45.4,328.6v3.3l-2.2-2.2C44,329.4,44.8,329.1,45.4,328.6z M45.3,334.9
				c-0.1-0.3-0.3-0.5-0.5-0.7c0.2-0.3,0.3-0.7,0.3-1.1l1.6,1.6L45.3,334.9z M46.5,333l0-5.2c0.7-0.7,1.2-1.5,1.6-2.4l1.7,2v8.9
				L46.5,333z M57,327.6c0,0,0,0.1,0,0.1c0,0.1,0,0.2,0,0.3c-1.7,0.8-3,2.5-3,4.6c0,1.6,0.7,3,1.9,3.9l-2.9,2.9v-9.8l1.5-1.5
				L57,327.6z"/>
			<path fill="#241F21" d="M327.5,313.2c0-2.4-1.1-4.6-2.9-6c0.4-0.5,0.7-1.1,0.7-1.8c0-1-0.5-1.9-1.3-2.4c0.2-0.7,0.3-1.4,0.3-2.2
				c0-0.3,0-0.6,0-0.9c1.1-0.2,1.9-1.1,1.9-2.2c0-0.8-0.5-1.6-1.1-1.9c0.3-1,0.5-2,0.5-3.1c0-5.5-4.4-9.9-9.9-9.9
				c-1.7,0-3.2,0.4-4.6,1.1c-2.4-1.9-5.4-3-8.6-3c-5.9,0-11,3.8-12.9,9c-0.7-0.2-1.4-0.4-2.1-0.4c-3.4,0-6.2,2.8-6.2,6.2
				c0,0.1,0,0.1,0,0.2c-1.6,1.5-2.6,3.6-2.6,6c0,1.4,0.4,2.8,1,4c-0.9,0.2-1.5,1-1.5,2c0,1.1,0.9,2.1,2.1,2.1c0,0,0,0,0.1,0
				c0,0.1,0,0.2,0,0.3c0,0.5,0,1,0.1,1.4c-1.3,0.7-2.1,2.1-2.1,3.7c0,2,1.4,3.7,3.3,4.1c-0.3,0.7-0.5,1.4-0.5,2.3
				c0,2.9,2.4,5.3,5.3,5.3c0.3,0,0.5,0,0.7-0.1c0,0,0.1,0,0.1,0.1c-0.1,0.3-0.1,0.6-0.1,0.8c0,2.3,1.9,4.2,4.2,4.2
				c2.3,0,4.2-1.9,4.2-4.2c0-0.5-0.1-1-0.3-1.5l1.9-0.3l3.2,3.2v16.8h3.9v-13.1l4.7-4.6c0.8,0.4,1.7,0.6,2.7,0.6
				c2.2,0,4.1-1.1,5.2-2.8c2.8-0.2,5-2.4,5-5.2c0-0.1,0-0.1,0-0.2C324.9,319.9,327.5,316.8,327.5,313.2z M291,320.2
				c0-0.1-0.1-0.2-0.1-0.3l0.3,0.3C291.1,320.2,291.1,320.2,291,320.2z M292,319.2c1-0.3,1.9-0.7,2.7-1.3v4L292,319.2z M294.6,325.6
				c-0.2-0.3-0.4-0.6-0.6-0.8c0.2-0.4,0.4-0.9,0.4-1.4l1.9,1.9L294.6,325.6z M300.1,327.2l-4-4l0-6.4c0.8-0.8,1.5-1.8,2-3l2.1,2.5
				V327.2z M300.1,315.3l-1.8-2.2c0.3-0.9,0.5-1.9,0.5-2.9c0-0.8-0.1-1.6-0.3-2.3c0.5,0.2,1.1,0.3,1.6,0.4V315.3z M309.4,308.5
				c0.6,0.5,1.3,0.8,2.1,1.1l-2.1,2.1V308.5z M303.9,308.3c1.4-0.2,2.7-0.6,4-1.1c0.1,0.1,0.1,0.1,0.2,0.2l0,5.6l-4.2,4.2V308.3z
				 M305.3,322.7c0,1.9,0.9,3.6,2.3,4.8l-3.6,3.5v-12l1.8-1.8l3.2-0.6c0,0,0,0.1,0,0.1c0,0.1,0,0.2,0,0.4
				C306.8,318.1,305.3,320.2,305.3,322.7z M309,315.9l-2.5,0.4l6.3-6.3c0.1,0,0.1,0,0.2,0c-0.4,0.8-0.6,1.6-0.7,2.5
				C310.7,312.9,309.3,314.2,309,315.9z"/>
		</g>
	</g>
	<rect y="348.5" fill="#241F21" width="750" height="151.5"/>
</g>
<g id="TEXTS">
</g>
</svg>
